inDegrees=no
num_controls=7
num_derivatives=13
num_iterations=83
num_multipliers=7
num_parameters=0
num_slacks=7
num_states=26
objective=0.445836
objective_accelerations=0.056953
objective_balance=0.003081
objective_effort=0.022466
objective_height=0.357805
objective_ligament=0.005530
solver_duration=1145.907205
status=Solve_Succeeded
success=true
DataType=double
version=3
OpenSimVersion=4.5
endheader
time	/jointset/ground_pelvis/pelvis_tilt/value	/jointset/ground_pelvis/pelvis_tx/value	/jointset/ground_pelvis/pelvis_ty/value	/jointset/hip_l/hip_flexion_l/value	/jointset/hip_l/hip_adduction_l/value	/jointset/hip_l/hip_rotation_l/value	/jointset/back/lumbar_extension/value	/jointset/patellofemoral_l/patellar_flexion_l/value	/jointset/knee_l/knee_flexion_l/value	/jointset/knee_l/knee_adduction_l/value	/jointset/knee_l/knee_rotation_l/value	/jointset/ankle_l/ankle_angle_l/value	/jointset/subtalar_l/subtalar_angle_l/value	/jointset/ground_pelvis/pelvis_tilt/speed	/jointset/ground_pelvis/pelvis_tx/speed	/jointset/ground_pelvis/pelvis_ty/speed	/jointset/hip_l/hip_flexion_l/speed	/jointset/hip_l/hip_adduction_l/speed	/jointset/hip_l/hip_rotation_l/speed	/jointset/back/lumbar_extension/speed	/jointset/patellofemoral_l/patellar_flexion_l/speed	/jointset/knee_l/knee_flexion_l/speed	/jointset/knee_l/knee_adduction_l/speed	/jointset/knee_l/knee_rotation_l/speed	/jointset/ankle_l/ankle_angle_l/speed	/jointset/subtalar_l/subtalar_angle_l/speed	/forceset/tau_hip_flexion_l	/forceset/tau_hip_adduction_l	/forceset/tau_hip_rotation_l	/forceset/tau_knee_flexion_l	/forceset/tau_ankle_angle_l	/forceset/tau_subtalar_angle_l	/forceset/tau_lumbar_extension	lambda_cid13_p0	lambda_cid13_p1	lambda_cid13_p2	lambda_cid13_p3	lambda_cid13_p4	lambda_cid13_p5	lambda_cid14_p0	/jointset/ground_pelvis/pelvis_tilt/accel	/jointset/ground_pelvis/pelvis_tx/accel	/jointset/ground_pelvis/pelvis_ty/accel	/jointset/hip_l/hip_flexion_l/accel	/jointset/hip_l/hip_adduction_l/accel	/jointset/hip_l/hip_rotation_l/accel	/jointset/back/lumbar_extension/accel	/jointset/patellofemoral_l/patellar_flexion_l/accel	/jointset/knee_l/knee_flexion_l/accel	/jointset/knee_l/knee_adduction_l/accel	/jointset/knee_l/knee_rotation_l/accel	/jointset/ankle_l/ankle_angle_l/accel	/jointset/subtalar_l/subtalar_angle_l/accel	gamma_cid13_p0	gamma_cid13_p1	gamma_cid13_p2	gamma_cid13_p3	gamma_cid13_p4	gamma_cid13_p5	gamma_cid14_p0
1.5	-0.3519671352703008	-0.01205811785796683	0.7639657713962598	1.078939034079714	-0.4359225962627013	-0.2021460158283395	-0.2226684115847811	0.8144744895257112	0.8144744895256454	-0.1333856045877104	-0.1386738139629071	0.1512663764286583	-0.007479630794135086	0.64072327565581	0.2458935662008137	0.5251349138940944	-2.386762266995442	0.2150118743990732	-0.7071904242952122	0.3205312659583859	-2.041625010317915	-2.04162501031755	-0.126417153105941	0.1575270442871888	-0.4599605676777321	0.007422934430537609	-0.1660971059992147	0.04717212565973965	-0.007375838319454559	-0.2070021498470618	0.03835275456771138	0.02728259412354322	0.162234387866245	-19.98435168848554	-10.71486426755686	4.073893960984669	-6.448017354618321	-519.5975348974919	-47.77657604802405	-24.34631818413895	0.6253664126260654	0.6477503904548318	-0.5225456330451862	-1.208406710147695	0.6845279759057522	-0.159663017691679	1.358964437027494	-1.314878458105945	-1.314878458105871	0.1556875177625953	0.2203067980992318	-0.5342677168354054	0.4752678899783521	5.257795224846054e-07	7.121835855598928e-07	-3.08398909472361e-06	-7.387638762345967e-08	8.10502206083263e-07	1.775562727444852e-07	4.967087546408759e-07
1.51	-0.345528577718872	-0.009567179343872309	0.7691898668742846	1.055012827000849	-0.4337400953144477	-0.2092244226702466	-0.2193972532962067	0.7939950857073373	0.793995085707314	-0.134645764382737	-0.1370892329443214	0.1466401409625756	-0.007383949467800958	0.6468932005556476	0.2522450872435335	0.5195623297012841	-2.398103743578205	0.221446674014252	-0.7083607926931934	0.3335919781975702	-2.053935931121455	-2.05393593112136	-0.1256537386192607	0.1593671147715597	-0.4652214157299657	0.01169033314219638	-0.1596595827456409	0.04588573773981459	-0.007012928418060597	-0.2045207042219514	0.03928264002254268	0.02648654243919812	0.1569048372974974	-19.4699975939626	-10.47019580709978	4.04744786062881	-6.30596366604982	-515.2875048479584	-47.95776931101217	-25.26848958793619	0.5985705348147037	0.6215281588245526	-0.5927547334128274	-1.040676853546658	0.6167881832693234	-0.0757863615186619	1.263362583588297	-1.141313983148132	-1.141313983188629	0.03100178626492881	0.1621453854232962	-0.5121835376694176	0.399017063914639	4.824277839562479e-07	1.204491771294281e-06	-2.312052099742871e-06	8.247495685190863e-08	7.305761818602504e-07	3.09064548310082e-07	4.606897457444937e-07
1.52	-0.3390311679172155	-0.007014190579821881	0.7743546085261787	1.030984473411916	-0.431494479924254	-0.2163105457182654	-0.2159987402919947	0.7734021496625979	0.7734021496626073	-0.1358994233584824	-0.135486993578514	0.1419632589783203	-0.007246285913919352	0.6524937257015718	0.2583036161919955	0.5132641486679319	-2.407191569009211	0.2276347627872453	-0.7087336655178671	0.3460022090857371	-2.064331455591796	-2.064331455591971	-0.1251169892468134	0.1610587137286212	-0.4700898713122828	0.01581937994005467	-0.1532220594920492	0.0445993498198929	-0.006650018516766861	-0.2020392585968313	0.04021252547737496	0.02569049075485888	0.151575286728766	-18.95794227401796	-10.22851926114452	4.025357189635238	-6.199244623784538	-511.0272539257785	-48.19348991775569	-26.18986569225277	0.5114864618434364	0.5891519716032776	-0.6676650011535719	-0.757676479796326	0.6351858074686619	-0.0001639030301749042	1.228868166824066	-0.931799191466072	-0.9317991914659425	0.1103544949159694	0.1906124926373597	-0.4557892228521495	0.4475975072182305	4.239358505549876e-07	1.328262347393654e-06	-1.819248718114809e-06	1.543842855778317e-07	6.206582511746168e-07	3.611050814595819e-07	4.125014898763124e-07
1.53	-0.3324809400712103	-0.00440153285536968	0.779453194203655	1.006875418546357	-0.4291873694253911	-0.2233969525846829	-0.2124762432526456	0.7527137881460363	0.7527137881460413	-0.1371471690356723	-0.133867513199523	0.1372403829956301	-0.007066548405524445	0.6574693747276261	0.2642395802192858	0.5063843098399212	-2.414439962704217	0.2337900776931307	-0.7084935198738815	0.3586564787846603	-2.073161156468999	-2.073161156468978	-0.1243904905377712	0.1628525446546708	-0.474370435657624	0.02018856027352189	-0.1493196531435869	0.04420405206171633	-0.006205155122025185	-0.1986275048464684	0.03996598623842838	0.02516764142339786	0.148626366373041	-18.92287121037982	-10.03474271518127	4.025482354712199	-6.318321010252713	-508.8956900812501	-48.41910357552353	-27.1101584766066	0.4782549079492528	0.5975917541600814	-0.708364277910476	-0.681477785509877	0.6062052577357195	0.04452952402350026	1.307598371579062	-0.831665580909446	-0.8316655808802073	0.06013345733471854	0.175731752563853	-0.3969361605030237	0.4406758062300251	3.49357460101268e-07	1.060461713255826e-06	-1.623024800673964e-06	1.365739725699701e-07	4.788739198724486e-07	3.287111382919799e-07	3.513834091005948e-07
1.54	-0.3258834255779542	-0.00172916086347101	0.7844809373019941	0.9826992683496176	-0.426818605592353	-0.2304792728494746	-0.2088224251162761	0.7319425076116932	0.7319425076116902	-0.1383863825461022	-0.1322297018392622	0.1324781521454614	-0.006841299591831182	0.6619510551521974	0.2702464696812894	0.4990956328404949	-2.42061063524551	0.2399654296225032	-0.7079163451934726	0.3722664284896943	-2.080915259148685	-2.080915259148469	-0.1234105558912736	0.1647249099797241	-0.4779608448080823	0.02492164099975127	-0.1454172467950879	0.0438087543035532	-0.005760291727384625	-0.1952157510960912	0.03971944699948524	0.02464479209195656	0.1456774460173448	-18.89267191409202	-9.843267547946128	4.029578494844887	-6.467290905969119	-506.8547932077267	-48.69389825364795	-28.03000507452301	0.412692741546898	0.6033370585459165	-0.7494326354367321	-0.5421322490539144	0.639193212166098	0.06724190425446398	1.420004168046284	-0.716679551962672	-0.7166795519626318	0.1610416824070518	0.2063193724380984	-0.317758183875577	0.5203775857706392	3.632869561640711e-07	1.254995229655302e-06	-1.565162247099113e-06	1.674263975547087e-07	5.326793273967827e-07	4.123700440378912e-07	3.611593939963732e-07
1.55	-0.3192432105555628	0.001002561780930807	0.7894332346025896	0.9584686467179556	-0.424389233078767	-0.2375546019883244	-0.205032989404987	0.7111007783852349	0.7111007783852098	-0.1396161052733934	-0.1305749356813243	0.1276823638547015	-0.006569015507015608	0.665951432967583	0.2759918100916953	0.4912261592470481	-2.4249565172238	0.2458500256350457	-0.7069897269392523	0.3853483525013927	-2.086987948120738	-2.086987948120601	-0.1225534863797321	0.1661957808758117	-0.4811396826653004	0.02948815301931891	-0.1375098857912328	0.04155683142201838	-0.005460673657078145	-0.1935503919333784	0.04126282027519496	0.02339237379809815	0.1388897876609456	-18.16973130407482	-9.427995469169332	3.965738327717308	-6.007805815198059	-501.8319153878576	-48.81498689851539	-28.9507155753609	0.3726257614211808	0.5442556932632926	-0.8261615407759358	-0.2972336213872706	0.5541636357154796	0.1298225035493585	1.211432327791585	-0.4862685519810817	-0.4862685519929323	0.04543438120700024	0.1121993821766723	-0.3092940087895099	0.4175541528147539	4.791929301698184e-07	1.982218093412944e-06	-1.666716047543768e-06	2.54346759791788e-07	8.118381296559874e-07	6.297420148363214e-07	4.526176719484362e-07
1.56	-0.3125672086630419	0.003788562461631714	0.7943027458033556	0.9342112827766771	-0.4219028004370738	-0.2446157748011215	-0.2011209052915685	0.6902115812726192	0.6902115812725805	-0.1408377783464142	-0.1289065151276509	0.1228565177009405	-0.006252513073451526	0.6691084291784474	0.2811020769411075	0.4825384128745204	-2.425959097168921	0.2513774552442746	-0.7050850799832927	0.3967961089154958	-2.09040883637897	-2.090408836378912	-0.12180062504102	0.1674557891312045	-0.4839724174083021	0.0337653107494833	-0.1296025247873548	0.03930490854048617	-0.005161055586641227	-0.1918850327706752	0.04280619355090321	0.02213995550424037	0.1321021293045669	-17.4436545668491	-9.017346213115212	3.907289550435478	-5.601337767077887	-496.7763717352979	-48.9830365533881	-29.87250437469525	0.2440164206427136	0.4763223463471488	-0.9130871912529117	0.1265281575795964	0.5677599315033561	0.2628476446023473	1.093170648527258	-0.186319409198391	-0.1863194091984135	0.1402000478411925	0.1641468442991434	-0.2485375610323472	0.4625067278899695	4.907813644271797e-07	2.312595587285917e-06	-1.514224968504167e-06	3.217078248410828e-07	8.5344485938958e-07	7.103938062849047e-07	4.689567049545964e-07
1.57	-0.3058639973296238	0.006622934698610499	0.7990817236812159	0.9099595362337116	-0.4193623325218144	-0.2516542923083441	-0.1971001031825991	0.6693007080554036	0.6693007080553485	-0.1420508791810381	-0.127226595464118	0.1180046962167459	-0.005893628290979839	0.6714392587446195	0.285714946790319	0.4731769203177648	-2.424068714220392	0.2566625104719317	-0.7025451116150376	0.407265624781233	-2.091475222743338	-2.09147522274325	-0.1208450604823624	0.1684819646600713	-0.4863174401982602	0.03798359149448047	-0.1238391516840768	0.03758802351840364	-0.00482662843106075	-0.1895523446571186	0.04329279931491268	0.02128274984971538	0.1273288674287919	-17.15688952992365	-8.716243593636253	3.883239614876445	-5.332124301886851	-493.8193339539123	-49.32659839512461	-30.78037093744146	0.2134107149088261	0.4452336198008209	-0.9596264245860039	0.2685031671525014	0.5006798558920136	0.2608871018822494	1.009038841097528	-0.0232799500286761	-0.02327995002428216	0.06971081765731803	0.06472375565454506	-0.2162483729278805	0.3970438428391169	3.719728739990593e-07	2.146916368803056e-06	-1.04417779010925e-06	3.646197684056473e-07	5.981114984661606e-07	6.20145373546181e-07	3.913966817783792e-07
1.58	-0.2991403188024848	0.009501728497199897	0.8037646974061688	0.8857363354809635	-0.4167706537467818	-0.2586651469980941	-0.1929775665578719	0.6483878746345432	0.6483878746344819	-0.1432551291384921	-0.1255378398756295	0.1131316717576615	-0.005493449682051441	0.6732018679229727	0.28998638926323	0.4633375822930488	-2.420249939125341	0.2616196271993963	-0.6995525164889795	0.4171430120669983	-2.090800877106613	-2.090800877106497	-0.1200304496125366	0.1692229741279042	-0.4882130123862319	0.0420240760408584	-0.1180757785807922	0.03587113849631682	-0.004492201275317477	-0.1872196565435794	0.0437794050789183	0.02042554419518115	0.1225556055530267	-16.8781133531021	-8.416227161925134	3.862201749483392	-5.071014947993049	-490.9883875344638	-49.72104006305618	-31.66575997546492	0.1303723430789513	0.4080368710870134	-1.008656284844984	0.5122065868841488	0.5021722314648434	0.3533729961629581	0.9747449325328831	0.1618269910201427	0.1618269910201375	0.1120093100748184	0.1071136320923448	-0.158647440635117	0.4269474881661021	2.562513713043978e-07	1.892890420443463e-06	-6.424946187213503e-07	3.825172162390655e-07	3.421400886175522e-07	5.052834304407248e-07	3.129221954268815e-07
